<svg xmlns="http://www.w3.org/2000/svg" width="70" height="70" viewBox="0 0 80 80"><g transform="translate(15.95 -139.798) scale(.62728)"><path d="M63.811 246.289c3.345 11.845-11.176 22.276-24.964 22.276-13.787 0-31.09-11.585-24.964-22.276 6.24-10.893 17.262-24.022 24.964-22.276 14.737 3.34 22.128 12.229 24.964 22.276z" fill="#fff"><animateTransform repeatCount="indefinite" dur="2s" begin="0s" values="0,0;0,4;0,0" type="translate" attributeName="transform"/></path><path d="M39.421 223.404c-16.335 0-27.387 17.258-27.387 30.73.086 13.813 6.675 16.314 16.497 16.203l9.899.264 10.939-.146c10.508-.75 17.943-1.049 17.668-16.757 0-13.472-11.28-30.294-27.616-30.294zm.283 3.62a7.659 7.659 0 012.792.522l.045.018a8.34 8.34 0 011.776 1.036c.786.577.945 1.684.35 2.456a1.758 1.758 0 01-2.475.31 4.797 4.797 0 00-1.001-.588c-.085-.03-1.613-.47-2.877-.013-.325.141-.314.13-.557.31a.968.968 0 01-.06.043c.068-.047-.237.187-.322.258a2.54 2.54 0 00-.214.197c-.409.387-.276.236-.616.845-.018.051-.032.09-.045.134.047-.16-.075.484-.059.296-.004.05-.01.099-.02.148-.116.652-.04.806.097 1.162.695 1.22 1.873 2.318 2.918 3.588.54.655 1.078 1.39 1.3 2.4.203.922-.059 1.993-.616 2.883a1.76 1.76 0 011.647-.12l13.996 5.967c.162.07.312.163.446.277 1.586 1.346 2.027 2.141 2.144 2.306l.01.011c.527.756.761 1.46.93 2.212l.001.006c.147.67.205 1.425.133 2.502a1.709 1.709 0 01-.026.196c-.04.223-.09.414-.137.587a4.31 4.31 0 01-.313.836c-.13.351-.292 1.063-.929 1.805-.655.765-1.631 1.315-3.052 1.773a1.753 1.753 0 01-.517.084l-30.717.386a1.781 1.781 0 01-.441-.052c-1.643-.402-2.688-.848-3.46-1.51-.734-.627-.997-1.265-1.168-1.561-.253-.335-.311-.415-.507-.852v-.001a4.738 4.738 0 01-.23-.608 1.721 1.721 0 01-.06-.293c-.124-1.038-.04-1.907.179-2.585l.004-.009c.271-.821.64-1.5 1.368-2.19a.076.076 0 00.009-.009c.172-.161.689-.823 3.012-2.262a.126.126 0 01.022-.011l14.792-8.871c0-.024.07-.105.06-.15-.023-.106-.194-.46-.589-.941-.79-.96-2.317-2.293-3.38-4.265a1.71 1.71 0 01-.092-.202 5.908 5.908 0 01-.28-3.044 3.7 3.7 0 01.169-.877h.001a5.95 5.95 0 01.205-.586 1.73 1.73 0 01.095-.196c.513-.901.881-1.325 1.293-1.717a6.08 6.08 0 01.393-.359c.117-.097.289-.244.552-.427a6.38 6.38 0 011.281-.73 7.575 7.575 0 012.74-.525zm-.244 16.76l-15.167 9.096c-2.17 1.345-1.838 1.255-2.46 1.837-.028.03-.42.664-.451.75-.091.283-.09.438-.035.96.027.017.244.395.144.264.034.043.065.088.094.135.376.606.386.708.532.833.136.117.707.407 1.874.716l30.061-.376c.82-.296 1.231-.555 1.303-.64.082-.094.115-.233.357-.856.016-.04.032-.08.05-.12-.06.127.16-.458.126-.333.015-.054.025-.107.039-.167.049-.791.032-1.045-.056-1.446-.053-.231-.375-.961-.387-.98-.408-.579-.382-.623-1.415-1.514l-13.683-5.833a1.736 1.736 0 01-.926-2.326zm-18.112 12.642c-.005-.002-.003.002 0 .013zm0 .013l.001.004.012.023c-.007-.015-.01-.02-.012-.028z" fill="#DB6664"><animateTransform repeatCount="indefinite" dur="2s" begin="0s" values="0,0;0,4;0,0" type="translate" attributeName="transform"/></path><ellipse ry="4.956" rx="7.949" cy="287.069" cx="38.409" fill="#DB6664" stroke="#DB6664"><animate repeatCount="indefinite" dur="2s" begin="0s" values="0;3;0" attributeName="stroke-width"/></ellipse></g></svg>