 <svg
  xmlns="http://www.w3.org/2000/svg"
  width="70"
  height="70"
  version="1.1"
  viewBox="0 0 80 80"
>

  <g
     style="stroke:none"
     id="g8"
     transform="matrix(0.62728097,0,0,0.62728097,15.949923,-139.7981)"
     paintOrder="stroke fill markers"
     strokeLinejoin="round"
     strokeLinecap="round"
     strokeDashoffset="0"
     strokeDasharray="none"
     fillRule="evenodd"
     fillOpacity="1">
    <path
       style="opacity:1;fill:#ffffff"
       id="path2"
       d="m 63.811,246.289 c 3.345,11.845 -11.176,22.276 -24.964,22.276 -13.787,0 -31.09,-11.585 -24.964,-22.276 6.24,-10.893 17.262,-24.022 24.964,-22.276 14.737,3.34 22.128,12.229 24.964,22.276 z"
       strokeWidth="4.291"
       strokeOpacity="0.67">
      <animateTransform
         repeatCount="indefinite"
         dur="2s"
         begin="0s"
         values="0,0;0,4;0,0"
         type="translate"
         attributeName="transform" />
    </path>
    <path
       style="opacity:1;fill:#15de8e"
       id="path4"
       d="m 39.421,223.404 c -16.335,0 -27.387,17.258 -27.387,30.73 0.086,13.813 6.675,16.314 16.497,16.203 l 9.899,0.264 10.939,-0.146 c 10.508,-0.75 17.943,-1.049 17.668,-16.757 0,-13.472 -11.28,-30.294 -27.616,-30.294 z m 0.283,3.62 a 7.659,7.659 0 0 1 2.792,0.522 l 0.045,0.018 a 8.34,8.34 0 0 1 1.776,1.036 c 0.786,0.577 0.945,1.684 0.35,2.456 a 1.758,1.758 0 0 1 -2.475,0.31 4.797,4.797 0 0 0 -1.001,-0.588 c -0.085,-0.03 -1.613,-0.47 -2.877,-0.013 -0.325,0.141 -0.314,0.13 -0.557,0.31 a 0.968,0.968 0 0 1 -0.06,0.043 c 0.068,-0.047 -0.237,0.187 -0.322,0.258 a 2.54,2.54 0 0 0 -0.214,0.197 c -0.409,0.387 -0.276,0.236 -0.616,0.845 -0.018,0.051 -0.032,0.09 -0.045,0.134 0.047,-0.16 -0.075,0.484 -0.059,0.296 -0.004,0.05 -0.01,0.099 -0.02,0.148 -0.116,0.652 -0.04,0.806 0.097,1.162 0.695,1.22 1.873,2.318 2.918,3.588 0.54,0.655 1.078,1.39 1.3,2.4 0.203,0.922 -0.059,1.993 -0.616,2.883 a 1.76,1.76 0 0 1 1.647,-0.12 l 13.996,5.967 c 0.162,0.07 0.312,0.163 0.446,0.277 1.586,1.346 2.027,2.141 2.144,2.306 l 0.01,0.011 c 0.527,0.756 0.761,1.46 0.93,2.212 l 10e-4,0.006 c 0.147,0.67 0.205,1.425 0.133,2.502 a 1.709,1.709 0 0 1 -0.026,0.196 c -0.04,0.223 -0.09,0.414 -0.137,0.587 -0.101,0.363 -0.161,0.513 -0.313,0.836 -0.13,0.351 -0.292,1.063 -0.929,1.805 -0.655,0.765 -1.631,1.315 -3.052,1.773 a 1.753,1.753 0 0 1 -0.517,0.084 l -30.717,0.386 a 1.781,1.781 0 0 1 -0.441,-0.052 c -1.643,-0.402 -2.688,-0.848 -3.46,-1.51 -0.734,-0.627 -0.997,-1.265 -1.168,-1.561 -0.253,-0.335 -0.311,-0.415 -0.507,-0.852 v -0.001 a 4.738,4.738 0 0 1 -0.23,-0.608 1.721,1.721 0 0 1 -0.06,-0.293 c -0.124,-1.038 -0.04,-1.907 0.179,-2.585 l 0.004,-0.009 c 0.271,-0.821 0.64,-1.5 1.368,-2.19 a 0.076,0.076 0 0 0 0.009,-0.009 c 0.172,-0.161 0.689,-0.823 3.012,-2.262 a 0.126,0.126 0 0 1 0.022,-0.011 l 14.792,-8.871 c 0,-0.024 0.07,-0.105 0.06,-0.15 -0.023,-0.106 -0.194,-0.46 -0.589,-0.941 -0.79,-0.96 -2.317,-2.293 -3.38,-4.265 a 1.71,1.71 0 0 1 -0.092,-0.202 5.908,5.908 0 0 1 -0.28,-3.044 c 0.035,-0.355 0.056,-0.498 0.169,-0.877 h 0.001 a 5.95,5.95 0 0 1 0.205,-0.586 1.73,1.73 0 0 1 0.095,-0.196 c 0.513,-0.901 0.881,-1.325 1.293,-1.717 a 6.08,6.08 0 0 1 0.393,-0.359 c 0.117,-0.097 0.289,-0.244 0.552,-0.427 0.329,-0.244 0.731,-0.49 1.281,-0.73 a 7.575,7.575 0 0 1 2.74,-0.525 z m -0.244,16.76 -15.167,9.096 c -2.17,1.345 -1.838,1.255 -2.46,1.837 -0.028,0.03 -0.42,0.664 -0.451,0.75 -0.091,0.283 -0.09,0.438 -0.035,0.96 0.027,0.017 0.244,0.395 0.144,0.264 0.034,0.043 0.065,0.088 0.094,0.135 0.376,0.606 0.386,0.708 0.532,0.833 0.136,0.117 0.707,0.407 1.874,0.716 l 30.061,-0.376 c 0.82,-0.296 1.231,-0.555 1.303,-0.64 0.082,-0.094 0.115,-0.233 0.357,-0.856 0.016,-0.04 0.032,-0.08 0.05,-0.12 -0.06,0.127 0.16,-0.458 0.126,-0.333 0.015,-0.054 0.025,-0.107 0.039,-0.167 0.049,-0.791 0.032,-1.045 -0.056,-1.446 -0.053,-0.231 -0.375,-0.961 -0.387,-0.98 -0.408,-0.579 -0.382,-0.623 -1.415,-1.514 L 40.386,246.11 a 1.736,1.736 0 0 1 -0.926,-2.326 z m -18.112,12.642 c -0.005,-0.002 -0.003,0.002 0,0.013 z m 0,0.013 0.001,0.004 0.012,0.023 c -0.007,-0.015 -0.01,-0.02 -0.012,-0.028 z"
       strokeWidth="3.646"
       strokeOpacity="1">
      <animateTransform
         repeatCount="indefinite"
         dur="2s"
         begin="0s"
         values="0,0;0,4;0,0"
         type="translate"
         attributeName="transform" />
    </path>
    <ellipse
       style="opacity:1;fill:#15de8e;stroke:#15de8e"
       id="ellipse6"
       ry="4.9559999"
       rx="7.9489999"
       cy="287.069"
       cx="38.409">
      <animate
         repeatCount="indefinite"
         dur="2s"
         begin="0s"
         values="0;3;0"
         attributeName="stroke-width" />
    </ellipse>
  </g>
</svg>
